<svg
   xmlns="http://www.w3.org/2000/svg"
   xmlns:sodipodi="http://sodipodi.sourceforge.net/DTD/sodipodi-0.dtd"
   xmlns:inkscape="http://www.inkscape.org/namespaces/inkscape"
   viewBox="52 42 88 66">
  <path
     fill="#4285f4"
     d="M 59.860016,105.53542 H 73.236975 V 73.944698 L 54.127033,60.00762 v 39.952955 c 0,3.084745 2.570287,5.574845 5.732983,5.574845"
     id="path64"
     style="fill:none;stroke:#ffffff;stroke-width:3.5;stroke-miterlimit:4;stroke-dasharray:none;stroke-opacity:1" />
  <path
     fill="#34a853"
     d="m 119.10083,105.53542 h 13.37696 c 3.17225,0 5.73298,-2.4994 5.73298,-5.574845 V 60.00762 l -19.10994,13.937078 z"
     id="path66"
     style="fill:none;stroke:#ffffff;stroke-width:3.5;stroke-miterlimit:4;stroke-dasharray:none;stroke-opacity:1"
     sodipodi:nodetypes="cssccc" />
  <path
     fill="#fbbc04"
     d="M 119.10083,49.787096 V 73.944698 L 138.21077,60.00762 v -7.433108 c 0,-6.894208 -8.09306,-10.824465 -13.75915,-6.689798 z"
     id="path68"
     style="opacity:1;fill:none;stroke:#ffffff;stroke-width:3.5;stroke-miterlimit:4;stroke-dasharray:none;stroke-opacity:1"
     sodipodi:nodetypes="cccscc" />
  <path
     fill="#ea4335"
     d="M 73.236975,73.944698 V 49.787096 L 96.168905,66.51159 119.10083,49.787096 V 73.944698 L 96.168905,90.669192 Z"
     id="path70"
     style="fill:none;stroke:#ffffff;stroke-width:3.5;stroke-miterlimit:4;stroke-dasharray:none;stroke-opacity:1"
     sodipodi:nodetypes="ccccccc" />
  <path
     fill="#c5221f"
     d="M 54.127033,52.574512 V 60.00762 L 73.236975,73.944698 V 49.787096 l -5.350783,-3.902382 c -5.675653,-4.134667 -13.759159,-0.20441 -13.759159,6.689798"
     id="path72"
     style="fill:none;stroke:#ffffff;stroke-width:3.5;stroke-miterlimit:4;stroke-dasharray:none;stroke-opacity:1" />
</svg>
