<?xml version="1.0" ?>
<!DOCTYPE svg  PUBLIC '-//W3C//DTD SVG 1.1//EN'  'http://www.w3.org/Graphics/SVG/1.1/DTD/svg11.dtd'>
<svg id="Layer_1" style="enable-background:new 0 0 78 78;" version="1.1" viewBox="0 0 78 78" xml:space="preserve"
    xmlns="http://www.w3.org/2000/svg"
    xmlns:xlink="http://www.w3.org/1999/xlink">
    <style type="text/css">
	.st0{fill:none;stroke:#ffffff;stroke-width:2;stroke-linecap:round;stroke-linejoin:round;stroke-miterlimit:10;}
</style>
    <g>
        <path class="st0" d="M69.3,2H8.7C5,2,2,5,2,8.7v60.6C2,73,5,76,8.7,76h60.6c3.7,0,6.7-3,6.7-6.7V8.7C76,5,73,2,69.3,2z M24.9,65.9   c0,1.1-0.9,1.9-1.9,1.9h-8.3c-1.1,0-1.9-0.9-1.9-1.9V31.1c0-1.1,0.9-1.9,1.9-1.9H23c1.1,0,1.9,0.9,1.9,1.9V65.9z M18.8,25.9   c-4.4,0-7.9-3.5-7.9-7.9s3.5-7.9,7.9-7.9s7.9,3.5,7.9,7.9S23.2,25.9,18.8,25.9z M68.2,66.1c0,1-0.8,1.8-1.8,1.8h-8.9   c-1,0-1.8-0.8-1.8-1.8V49.7c0-2.4,0.7-10.7-6.4-10.7c-5.5,0-6.6,5.6-6.8,8.2v18.8c0,1-0.8,1.8-1.8,1.8h-8.6c-1,0-1.8-0.8-1.8-1.8   V31c0-1,0.8-1.8,1.8-1.8h8.6c1,0,1.8,0.8,1.8,1.8v3c2-3.1,5.1-5.4,11.5-5.4c14.2,0,14.2,13.3,14.2,20.6L68.2,66.1L68.2,66.1z"/>
    </g>
</svg>