<?xml version="1.0" ?>
<!DOCTYPE svg  PUBLIC '-//W3C//DTD SVG 1.1//EN'  'http://www.w3.org/Graphics/SVG/1.1/DTD/svg11.dtd'>
<svg id="Layer_1" style="enable-background:new 0 0 78 78;" version="1.1" viewBox="0 0 78 78" xml:space="preserve"
    xmlns="http://www.w3.org/2000/svg"
    xmlns:xlink="http://www.w3.org/1999/xlink">
    <style type="text/css">
	.st0{fill:none;stroke:#ffffff;stroke-width:2;stroke-linecap:round;stroke-linejoin:round;stroke-miterlimit:10;}

</style>
    <g>
        <path class="st0" d="M74.8,15.4c-1.6,0.7-3.4,1.3-5.1,1.7c1.9-1.8,3.4-4.1,4.2-6.7l0,0c0.2-0.7-0.6-1.4-1.2-1l0,0   c-2.4,1.4-5.1,2.5-7.8,3.2c-0.2,0-0.3,0.1-0.5,0.1c-0.5,0-1-0.2-1.4-0.5c-2.9-2.6-6.7-4-10.6-4c-1.7,0-3.4,0.3-5.1,0.8   c-5.2,1.6-9.2,5.9-10.4,11.1c-0.5,2-0.6,4-0.4,5.9c0,0.2-0.1,0.4-0.1,0.4c-0.1,0.1-0.3,0.2-0.4,0.2c0,0,0,0-0.1,0   c-11.3-1.1-21.5-6.5-28.8-15.4l0,0c-0.4-0.5-1.1-0.4-1.4,0.1l0,0c-1.4,2.4-2.2,5.2-2.2,8c0,4.3,1.7,8.4,4.8,11.4   C7.2,30.5,6,30,4.8,29.4l0,0c-0.6-0.3-1.2,0.1-1.2,0.7l0,0c-0.1,6.4,3.7,12.1,9.3,14.7c-0.1,0-0.2,0-0.3,0c-0.9,0-1.8-0.1-2.7-0.3   l0,0c-0.6-0.1-1.1,0.5-1,1.1l0,0c1.8,5.7,6.7,9.9,12.6,10.9c-4.9,3.3-10.6,5-16.5,5l-1.8,0c-0.6,0-1,0.4-1.2,0.9   c-0.1,0.5,0.1,1.1,0.6,1.4c6.7,3.9,14.3,5.9,22,5.9c6.8,0,13.1-1.3,18.8-4c5.2-2.4,9.9-5.9,13.8-10.3c3.6-4.1,6.5-8.9,8.4-14.1   c1.9-5,2.9-10.3,2.9-15.4v-0.2c0-0.8,0.4-1.6,1-2.1c2.5-2,4.6-4.3,6.3-7l0,0C76.3,15.9,75.6,15,74.8,15.4L74.8,15.4z"/>
    </g>
</svg>